<svg width="95" height="83" viewBox="0 0 95 83" fill="none" xmlns="http://www.w3.org/2000/svg">
<g opacity="0.2">
<path d="M53.5489 67.4462L53.697 66.888L53.8679 66.2159C53.8679 66.0564 53.8679 65.9881 53.9818 65.7375L54.1299 65.0312C54.2438 64.5414 54.3691 63.9604 54.5172 63.425C54.6653 62.8896 54.8362 62.3428 55.0184 61.739C55.4058 60.5429 55.8842 59.2215 56.4652 57.8317C57.0969 56.3497 57.8041 54.9011 58.584 53.4915C59.4498 51.9634 60.4045 50.4876 61.4433 49.0715C63.6201 46.0484 66.1734 43.3151 69.0415 40.9379C69.2124 40.7442 69.0415 40.8809 69.1441 40.8354H69.201L69.3263 40.7442L69.5656 40.5734L70.0554 40.2088L71.1946 39.3886C71.992 38.7849 72.7438 38.3406 73.4729 37.8508C74.9399 36.9548 76.4618 36.1521 78.0295 35.4471C80.7218 34.2374 83.542 33.3356 86.4366 32.7587C87.6896 32.5195 88.8174 32.3486 89.854 32.2461C90.8907 32.1436 91.7565 31.9841 92.4855 31.9841C93.2146 31.9841 93.7614 31.9841 94.1373 31.9841H94.7183L94.1829 32.2233C93.8411 32.3942 93.3399 32.5992 92.7247 32.941C92.1096 33.2827 91.3691 33.67 90.5489 34.1599C89.7287 34.6497 88.8402 35.299 87.9061 35.937C85.8483 37.4821 83.9685 39.2511 82.3014 41.2113C81.3983 42.2938 80.5687 43.4355 79.818 44.6288C79.4458 45.1952 79.1036 45.7808 78.7928 46.3831L78.3029 47.3058L78.0181 47.8412L77.87 48.1032L77.8017 48.2399V48.3083L77.87 48.2285C76.7768 50.6053 76.0104 53.1191 75.5917 55.7015C75.2439 57.8282 75.1445 59.9881 75.2955 62.1377C75.3639 63.0604 75.4778 63.8693 75.5917 64.5869L75.7854 65.5666C75.7854 65.8514 75.9335 66.0337 75.9904 66.2387L76.0702 66.5121C76.0702 66.5121 76.0702 66.7855 76.1499 66.8994C76.2297 67.0133 76.2524 67.3893 76.2866 67.5829C76.3664 67.9475 76.4005 68.1525 76.4005 68.1525C77.0048 71.1919 76.3769 74.3468 74.655 76.9232C72.9331 79.4997 70.2583 81.2866 67.2189 81.8908C64.1795 82.4951 61.0246 81.8672 58.4481 80.1453C55.8717 78.4234 54.0848 75.7485 53.4806 72.7092C53.1084 70.9719 53.1318 69.1732 53.5489 67.4462Z" fill="#6DCEAE"/>
<path d="M23.9308 0.440622L26.2091 0.793762L29.1026 1.26082L30.9936 1.57978L32.953 2.02406C34.3086 2.30885 35.7553 2.70756 37.259 3.16322C38.7627 3.61889 40.3461 4.1429 41.9523 4.6897C43.5586 5.2365 45.1762 5.90861 46.7824 6.66045C48.3886 7.4123 49.9835 8.18693 51.5555 8.93878C53.1275 9.69063 54.654 10.6589 56.1122 11.6272C57.5703 12.5955 58.9373 13.541 60.2473 14.4865C61.5574 15.432 62.7649 16.4345 63.8585 17.4369C64.9521 18.4394 65.9659 19.3393 66.8431 20.2621L68.1189 21.5493L69.1897 22.7796C69.8732 23.5315 70.4428 24.2036 70.8757 24.7845L72.2769 26.573L70.2833 25.5022C69.5434 25.0846 68.783 24.7044 68.005 24.3631L66.5811 23.7023L64.9407 23.0986C63.8015 22.6315 62.6623 22.2214 61.3181 21.8113C59.9739 21.4012 58.6411 21.0481 57.2399 20.6722C55.8388 20.2962 54.3578 20.0342 52.8428 19.8292C51.3277 19.6241 49.824 19.4533 48.2861 19.2938C46.7482 19.1343 45.2787 19.1115 43.7978 19.1343C42.3169 19.1571 40.8815 19.214 39.5145 19.271C38.1475 19.3279 36.8147 19.4874 35.573 19.6925C34.3313 19.8975 33.1694 20.0342 32.1555 20.2621L30.6518 20.5924L29.4216 20.9228L27.2344 21.5037L25.0472 22.0733C22.2087 22.8256 19.1876 22.4195 16.6486 20.9444C14.1096 19.4692 12.2605 17.0459 11.5082 14.2074C10.7559 11.3689 11.162 8.34789 12.6372 5.80885C14.1123 3.2698 16.5357 1.42075 19.3741 0.668454C20.8613 0.280943 22.4123 0.203393 23.9308 0.440622Z" fill="#6DCEAE"/>
<path d="M2.52574 55.4394L4.18891 53.6282C4.87241 52.8763 5.80653 51.8283 6.82038 50.8372C7.83424 49.8461 8.93922 48.8778 10.2379 47.8868C10.8758 47.3742 11.5479 46.8729 12.277 46.3831C13.006 45.8932 13.7237 45.3806 14.5553 44.9136C16.148 43.9227 17.799 43.0288 19.4993 42.2365C20.3764 41.815 21.265 41.4163 22.1763 41.0974C23.0876 40.7784 24.0104 40.3797 24.9331 40.0607C26.7899 39.4114 28.7037 38.9216 30.6289 38.4089C32.5541 37.8963 34.4223 37.5887 36.3247 37.2698C38.2271 36.9508 40.0156 36.7913 41.7699 36.6432C44.9299 36.3867 48.1015 36.3031 51.2705 36.3926C54.3229 36.475 57.3669 36.7528 60.3838 37.2242C57.4353 37.7619 54.5245 38.4887 51.6692 39.4C48.792 40.2952 45.9663 41.3486 43.2053 42.5555C41.713 43.2276 40.1979 43.9339 38.7056 44.7427C37.2133 45.5515 35.7551 46.3945 34.3426 47.283C32.93 48.1716 31.5288 49.1512 30.2758 50.2107C29.6492 50.7119 29.0455 51.2017 28.4759 51.7258C27.9063 52.2498 27.3367 52.751 26.8241 53.275C25.8358 54.2393 24.9111 55.2667 24.0559 56.3508C23.6507 56.8282 23.2705 57.3263 22.9168 57.8431C22.5703 58.2962 22.2544 58.7719 21.9713 59.267C21.3789 60.167 20.946 61.0441 20.5473 61.796C20.1486 62.5478 20.0688 63.0149 19.8296 63.5389L18.8727 65.8172C18.3195 67.1341 17.4856 68.3145 16.4292 69.276C15.3728 70.2375 14.1194 70.9569 12.7563 71.3841C11.3933 71.8113 9.95343 71.936 8.53724 71.7494C7.12105 71.5629 5.7626 71.0696 4.55667 70.304C3.35073 69.5385 2.32634 68.519 1.55495 67.3168C0.783567 66.1145 0.283757 64.7585 0.0903903 63.3432C-0.102977 61.9279 0.0147547 60.4875 0.435372 59.1224C0.85599 57.7573 1.56937 56.5004 2.52574 55.4394Z" fill="#6DCEAE"/>
</g>
</svg>
