<svg xmlns="http://www.w3.org/2000/svg" width="24" height="24" viewBox="0 0 24 24" fill="none">
  <g clip-path="url(#clip0_1_986)">
    <path d="M20.057 16.8L20.157 16.9C20.384 17.129 20.6653 17.2968 20.9745 17.3879C21.2838 17.479 21.6111 17.4904 21.926 17.421C22.2358 17.356 22.5243 17.2141 22.7649 17.0084C23.0055 16.8028 23.1906 16.5399 23.303 16.244C23.8551 14.7943 24.1191 13.2508 24.08 11.7C23.9675 8.65402 22.7146 5.76148 20.5698 3.59574C18.425 1.42999 15.5448 0.149116 12.5 0.00700384C10.89 -0.0489779 9.28519 0.219794 7.78128 0.797296C6.27736 1.3748 4.90512 2.24921 3.74637 3.36839C2.58762 4.48757 1.66609 5.82861 1.0367 7.31157C0.407318 8.79452 0.0829746 10.389 0.0830078 12C0.086713 15.1815 1.35219 18.2316 3.60182 20.4812C5.85145 22.7308 8.90155 23.9963 12.083 24C12.421 24 12.753 23.978 13.083 23.95C13.3334 23.9289 13.5667 23.8143 13.7364 23.629C13.9061 23.4437 13.9999 23.2013 13.999 22.95L13.967 19.362C13.9589 18.653 14.1623 17.9576 14.5512 17.3647C14.9402 16.7718 15.497 16.3083 16.1506 16.0334C16.8042 15.7584 17.5249 15.6845 18.2207 15.821C18.9165 15.9576 19.5558 16.2984 20.057 16.8ZM17.115 8.05C17.4017 7.97392 17.7046 7.98457 17.9853 8.08059C18.2659 8.17662 18.5118 8.35372 18.6919 8.58949C18.8719 8.82526 18.978 9.10913 18.9967 9.40519C19.0154 9.70125 18.946 9.99621 18.797 10.2528C18.6481 10.5093 18.4265 10.716 18.1601 10.8466C17.8938 10.9772 17.5947 11.0259 17.3007 10.9866C17.0066 10.9472 16.7309 10.8215 16.5083 10.6255C16.2857 10.4294 16.1262 10.1717 16.05 9.885C15.9994 9.69459 15.9868 9.49607 16.013 9.30079C16.0391 9.10551 16.1035 8.91729 16.2024 8.74689C16.3013 8.57648 16.4328 8.42723 16.5894 8.30766C16.746 8.18809 16.9246 8.10053 17.115 8.05ZM7.88501 16.95C7.59828 17.0261 7.29543 17.0154 7.01475 16.9194C6.73407 16.8234 6.48817 16.6463 6.30813 16.4105C6.12809 16.1747 6.02201 15.8909 6.00329 15.5948C5.98457 15.2988 6.05406 15.0038 6.20297 14.7472C6.35188 14.4907 6.57352 14.284 6.83987 14.1534C7.10622 14.0228 7.40532 13.9741 7.69935 14.0134C7.99338 14.0528 8.26913 14.1785 8.49174 14.3745C8.71436 14.5706 8.87383 14.8283 8.95001 15.115C9.0006 15.3054 9.01318 15.5039 8.98704 15.6992C8.96089 15.8945 8.89653 16.0827 8.79764 16.2531C8.69874 16.4235 8.56724 16.5728 8.41065 16.6923C8.25406 16.8119 8.07544 16.8995 7.88501 16.95ZM7.88501 10.95C7.59828 11.0261 7.29543 11.0154 7.01475 10.9194C6.73407 10.8234 6.48817 10.6463 6.30813 10.4105C6.12809 10.1747 6.02201 9.89088 6.00329 9.59482C5.98457 9.29876 6.05406 9.0038 6.20297 8.74723C6.35188 8.49066 6.57352 8.284 6.83987 8.15339C7.10622 8.02278 7.40532 7.97408 7.69935 8.01344C7.99338 8.0528 8.26913 8.17847 8.49174 8.37454C8.71436 8.57062 8.87383 8.8283 8.95001 9.115C9.0006 9.30542 9.01318 9.50394 8.98704 9.69922C8.96089 9.8945 8.89653 10.0827 8.79764 10.2531C8.69874 10.4235 8.56724 10.5728 8.41065 10.6923C8.25406 10.8119 8.07544 10.8995 7.88501 10.95ZM12.885 7.95C12.5983 8.02609 12.2954 8.01544 12.0147 7.91941C11.7341 7.82339 11.4882 7.64629 11.3081 7.41052C11.1281 7.17474 11.022 6.89088 11.0033 6.59482C10.9846 6.29876 11.0541 6.0038 11.203 5.74723C11.3519 5.49066 11.5735 5.284 11.8399 5.15339C12.1062 5.02278 12.4053 4.97408 12.6993 5.01344C12.9934 5.05281 13.2691 5.17847 13.4917 5.37454C13.7144 5.57062 13.8738 5.8283 13.95 6.115C14.0006 6.30542 14.0132 6.50394 13.987 6.69922C13.9609 6.8945 13.8965 7.08272 13.7976 7.25312C13.6987 7.42353 13.5672 7.57278 13.4106 7.69235C13.2541 7.81192 13.0754 7.89947 12.885 7.95Z" fill="currentColor"/>
  </g>
  <defs>
    <clipPath id="clip0_1_986">
      <rect width="24" height="24" fill="white"/>
    </clipPath>
  </defs>
</svg>