<svg xmlns="http://www.w3.org/2000/svg" width="24" height="24" viewBox="0 0 24 24" fill="none">
  <path d="M23.9456 7.11127H0V22.1288C0.035 22.255 0.065625 22.3838 0.106875 22.5081C0.39 23.3663 1.18813 23.9469 2.11313 23.9513C3.46938 23.9575 4.82625 23.9531 6.1825 23.9531C11.3675 23.9531 16.5519 23.9538 21.7362 23.9531C22.8 23.9525 23.6238 23.3513 23.8775 22.3819C23.9244 22.2031 23.95 22.0131 23.95 21.8288C23.9538 16.9794 23.9531 12.13 23.9531 7.28064C23.9531 7.23502 23.9494 7.18877 23.9456 7.11127ZM8.31 18.0781C8.04813 18.4038 7.62687 18.4244 7.2525 18.125C6.1325 17.23 5.01375 16.335 3.89563 15.4381C3.43688 15.07 3.43563 14.5919 3.89375 14.2244C5.0175 13.3225 6.1425 12.4219 7.26813 11.5231C7.62875 11.2356 8.04937 11.2613 8.30812 11.58C8.57312 11.9069 8.5075 12.3281 8.13875 12.625C7.30062 13.2981 6.46 13.9675 5.62063 14.6388C5.54938 14.6963 5.47937 14.7544 5.38562 14.8319C5.76937 15.1388 6.13188 15.43 6.49438 15.72C7.04188 16.1581 7.59 16.5944 8.13625 17.0338C8.50625 17.3319 8.57375 17.7506 8.31 18.0781ZM14.6869 10.2838C13.31 13.5031 11.9306 16.7213 10.5506 19.9388C10.4 20.29 10.1369 20.4656 9.81563 20.4406C9.51437 20.4175 9.2375 20.2031 9.19875 19.8956C9.17625 19.7144 9.21562 19.5056 9.28813 19.3356C10.4362 16.6363 11.5944 13.9413 12.75 11.245C12.9769 10.7156 13.1994 10.1844 13.4319 9.65752C13.5781 9.32689 13.9069 9.15939 14.23 9.23252C14.5525 9.30502 14.785 9.59752 14.7812 9.99064C14.7625 10.0494 14.7356 10.1713 14.6869 10.2838ZM20.09 15.4138C18.9487 16.3319 17.805 17.2463 16.6588 18.1569C16.3144 18.4313 15.8875 18.3894 15.6388 18.0731C15.3881 17.755 15.4456 17.3363 15.7869 17.0613C16.6362 16.3775 17.4894 15.6975 18.3406 15.0163C18.4069 14.9625 18.4719 14.9075 18.5681 14.8281C18.01 14.3806 17.4762 13.9531 16.9425 13.5256C16.5594 13.2188 16.1744 12.9144 15.7937 12.6056C15.4431 12.3206 15.385 11.8956 15.6481 11.5763C15.9037 11.2656 16.3219 11.235 16.67 11.5119C17.81 12.4194 18.9475 13.3281 20.0831 14.2406C20.5062 14.5806 20.51 15.0763 20.09 15.4138Z" fill="currentColor"/>
  <path d="M23.9525 2.28751C23.95 0.996889 23.0487 0.0943888 21.7594 0.0943888C15.2419 0.0931388 8.72375 0.0931388 2.20625 0.0937638C1.08812 0.0943888 0.298125 0.722514 0.039375 1.81001C0.030625 1.84751 0.013125 1.88251 0 1.91814V5.70751H23.9419C23.9463 5.61814 23.9525 5.54314 23.9525 5.46814C23.9531 4.40814 23.955 3.34751 23.9525 2.28751ZM3.5525 4.30314C3.17375 4.30189 2.85625 3.98439 2.85437 3.60501C2.8525 3.21751 3.1825 2.89314 3.57 2.90126C3.94937 2.90939 4.26125 3.23189 4.25625 3.61064C4.25125 3.99001 3.93125 4.30501 3.5525 4.30314ZM6.35375 4.30314C5.975 4.29814 5.66 3.97814 5.66187 3.59939C5.66312 3.22001 5.98063 2.90251 6.35938 2.90126C6.73875 2.90001 7.05875 3.21439 7.06313 3.59376C7.06813 3.98189 6.74188 4.30814 6.35375 4.30314ZM9.16562 4.30314C8.78687 4.30126 8.47 3.98376 8.46875 3.60439C8.4675 3.21626 8.79688 2.89251 9.185 2.90126C9.56375 2.91001 9.87562 3.23251 9.87062 3.61126C9.865 3.99064 9.54437 4.30501 9.16562 4.30314ZM20.3013 4.30376C19.6319 4.30501 18.9625 4.30439 18.2925 4.30439C17.6231 4.30439 16.9537 4.30501 16.2844 4.30376C15.8094 4.30314 15.49 4.02376 15.4862 3.60814C15.4825 3.19251 15.8031 2.90126 16.2719 2.90126C17.6187 2.90001 18.965 2.90001 20.3119 2.90126C20.7825 2.90126 21.1019 3.19064 21.0981 3.60751C21.095 4.02439 20.7775 4.30314 20.3013 4.30376Z" fill="currentColor"/>
</svg>